<svg xmlns="http://www.w3.org/2000/svg" xmlns:xlink="http://www.w3.org/1999/xlink" width="500" zoomAndPan="magnify" viewBox="0 0 375 374.999991" height="500" preserveAspectRatio="xMidYMid meet" version="1.0"><defs><g/><clipPath id="5a3e562a60"><path d="M 108.941406 37.5 L 256.140625 37.5 L 256.140625 206.546875 L 108.941406 206.546875 Z M 108.941406 37.5 " clip-rule="nonzero"/></clipPath></defs><path stroke-linecap="butt" transform="matrix(1.17568, 0, 0, 1.17568, 18.540677, 246.541829)" fill="none" stroke-linejoin="miter" d="M 47.793446 5.01469 L 29.399833 5.01469 C 26.874698 5.01469 24.808075 7.084636 24.808075 9.616416 L 24.808075 23.404981 C 24.808075 25.930115 26.874698 28.000061 29.399833 28.000061 L 43.19172 28.000061 C 45.75008 28.000061 47.793446 25.903535 47.793446 23.404981 L 47.793446 14.211497 L 34.001559 14.211497 L 34.001559 18.803255 L 43.19172 18.803255 L 43.19172 23.404981 L 29.399833 23.404981 L 29.399833 9.616416 L 47.793446 9.616416 Z M 56.827447 5.01469 C 54.302313 5.01469 52.232367 7.084636 52.232367 9.616416 L 52.232367 28.000061 L 56.827447 28.000061 L 56.827447 18.803255 L 70.619334 18.803255 L 70.619334 28.000061 L 75.217738 28.000061 L 75.217738 9.616416 C 75.217738 7.084636 73.151114 5.01469 70.619334 5.01469 Z M 56.827447 9.616416 L 70.619334 9.616416 L 70.619334 14.211497 L 56.827447 14.211497 Z M 84.255062 5.01469 C 81.729927 5.01469 79.659981 7.084636 79.659981 9.616416 L 79.659981 28.000061 L 84.255062 28.000061 L 84.255062 9.616416 L 88.856787 9.616416 L 88.856787 28.000061 L 93.451868 28.000061 L 93.451868 9.616416 L 98.046949 9.616416 L 98.046949 28.000061 L 102.645352 28.000061 L 102.645352 9.616416 C 102.645352 7.084636 100.578728 5.01469 98.046949 5.01469 Z M 130.072966 5.01469 L 111.682676 5.01469 C 109.157541 5.01469 107.087595 7.084636 107.087595 9.616416 L 107.087595 23.404981 C 107.087595 25.930115 109.157541 28.000061 111.682676 28.000061 L 130.072966 28.000061 L 130.072966 23.404981 L 111.682676 23.404981 L 111.682676 18.803255 L 130.072966 18.803255 L 130.072966 14.211497 L 111.682676 14.211497 L 111.682676 9.616416 L 130.072966 9.616416 Z M 157.500581 5.01469 L 139.11029 5.01469 C 136.585156 5.01469 134.51521 7.084636 134.51521 9.616416 L 134.51521 14.211497 C 134.51521 16.736632 136.585156 18.803255 139.11029 18.803255 L 152.898855 18.803255 L 152.898855 23.404981 L 134.51521 23.404981 L 134.51521 28.000061 L 152.898855 28.000061 C 155.430635 28.000061 157.500581 25.930115 157.500581 23.404981 L 157.500581 18.803255 C 157.500581 16.27812 155.430635 14.211497 152.898855 14.211497 L 139.11029 14.211497 L 139.11029 9.616416 L 157.500581 9.616416 Z M 199.720168 5.01469 L 181.329878 5.01469 C 178.804743 5.01469 176.734797 7.084636 176.734797 9.616416 L 176.734797 28.000061 L 181.329878 28.000061 L 181.329878 18.803255 L 199.720168 18.803255 L 199.720168 14.211497 L 181.329878 14.211497 L 181.329878 9.616416 L 199.720168 9.616416 Z M 222.546057 28.000061 C 225.107739 28.000061 227.147782 25.903535 227.147782 23.404981 L 227.147782 9.616416 C 227.147782 7.084636 225.077837 5.01469 222.546057 5.01469 L 208.757492 5.01469 C 206.232358 5.01469 204.162412 7.084636 204.162412 9.616416 L 204.162412 23.404981 C 204.162412 25.930115 206.232358 28.000061 208.757492 28.000061 Z M 208.757492 9.616416 L 222.546057 9.616416 L 222.546057 23.404981 L 208.757492 23.404981 Z M 254.575397 9.616416 C 254.575397 7.084636 252.505451 5.01469 249.973671 5.01469 L 231.590026 5.01469 L 231.590026 28.000061 L 236.181784 28.000061 L 236.181784 18.803255 L 238.883014 18.803255 L 247.392053 27.312294 C 247.847242 27.767483 248.422042 28.000061 249.053326 28.000061 L 254.575397 28.000061 L 254.575397 23.404981 L 249.973671 23.404981 L 245.37859 18.803255 L 249.973671 18.803255 C 252.505451 18.803255 254.575397 16.736632 254.575397 14.211497 Z M 249.973671 9.616416 L 249.973671 14.211497 L 236.181784 14.211497 L 236.181784 9.616416 Z M 249.973671 9.616416 " stroke="#006f73" stroke-width="2.154892" stroke-opacity="1" stroke-miterlimit="4"/><path stroke-linecap="butt" transform="matrix(1.17568, 0, 0, 1.17568, 18.540677, 246.541829)" fill="none" stroke-linejoin="miter" d="M 110.041338 39.0143 L 91.651048 39.0143 C 89.125914 39.0143 87.055968 41.084246 87.055968 43.616026 L 87.055968 48.211106 C 87.055968 50.736241 89.125914 52.802865 91.651048 52.802865 L 105.439613 52.802865 L 105.439613 57.40459 L 87.055968 57.40459 L 87.055968 61.999671 L 105.439613 61.999671 C 107.971393 61.999671 110.041338 59.929725 110.041338 57.40459 L 110.041338 52.802865 C 110.041338 50.27773 107.971393 48.211106 105.439613 48.211106 L 91.651048 48.211106 L 91.651048 43.616026 L 110.041338 43.616026 Z M 119.078663 39.0143 C 116.553528 39.0143 114.483582 41.084246 114.483582 43.616026 L 114.483582 61.999671 L 119.078663 61.999671 L 119.078663 52.802865 L 132.867227 52.802865 L 132.867227 61.999671 L 137.468953 61.999671 L 137.468953 43.616026 C 137.468953 41.084246 135.399007 39.0143 132.867227 39.0143 Z M 119.078663 43.616026 L 132.867227 43.616026 L 132.867227 48.211106 L 119.078663 48.211106 Z M 164.896567 61.999671 L 164.896567 57.40459 L 146.506277 57.40459 L 146.506277 39.0143 L 141.911196 39.0143 L 141.911196 57.40459 C 141.911196 59.929725 143.981142 61.999671 146.506277 61.999671 Z M 192.324181 39.0143 L 173.933891 39.0143 C 171.408757 39.0143 169.338811 41.084246 169.338811 43.616026 L 169.338811 57.40459 C 169.338811 59.929725 171.408757 61.999671 173.933891 61.999671 L 192.324181 61.999671 L 192.324181 57.40459 L 173.933891 57.40459 L 173.933891 52.802865 L 192.324181 52.802865 L 192.324181 48.211106 L 173.933891 48.211106 L 173.933891 43.616026 L 192.324181 43.616026 Z M 192.324181 39.0143 " stroke="#006f73" stroke-width="2.154892" stroke-opacity="1" stroke-miterlimit="4"/><g fill="#5ce1e6" fill-opacity="1"><g transform="translate(46.352854, 279.460865)"><g><path d="M 28.371094 -27.023438 L 6.753906 -27.023438 C 3.78125 -27.023438 1.351562 -24.589844 1.351562 -21.617188 L 1.351562 -5.40625 C 1.351562 -2.433594 3.78125 0 6.753906 0 L 22.96875 0 C 25.976562 0 28.371094 -2.464844 28.371094 -5.40625 L 28.371094 -16.214844 L 12.160156 -16.214844 L 12.160156 -10.808594 L 22.96875 -10.808594 L 22.96875 -5.40625 L 6.753906 -5.40625 L 6.753906 -21.617188 L 28.371094 -21.617188 Z M 28.371094 -27.023438 "/></g></g></g><g fill="#5ce1e6" fill-opacity="1"><g transform="translate(78.59864, 279.460865)"><g><path d="M 6.753906 -27.023438 C 3.78125 -27.023438 1.351562 -24.589844 1.351562 -21.617188 L 1.351562 0 L 6.753906 0 L 6.753906 -10.808594 L 22.96875 -10.808594 L 22.96875 0 L 28.371094 0 L 28.371094 -21.617188 C 28.371094 -24.589844 25.941406 -27.023438 22.96875 -27.023438 Z M 6.753906 -21.617188 L 22.96875 -21.617188 L 22.96875 -16.214844 L 6.753906 -16.214844 Z M 6.753906 -21.617188 "/></g></g></g><g fill="#5ce1e6" fill-opacity="1"><g transform="translate(110.844427, 279.460865)"><g><path d="M 6.753906 -27.023438 C 3.78125 -27.023438 1.351562 -24.589844 1.351562 -21.617188 L 1.351562 0 L 6.753906 0 L 6.753906 -21.617188 L 12.160156 -21.617188 L 12.160156 0 L 17.5625 0 L 17.5625 -21.617188 L 22.96875 -21.617188 L 22.96875 0 L 28.371094 0 L 28.371094 -21.617188 C 28.371094 -24.589844 25.941406 -27.023438 22.96875 -27.023438 Z M 6.753906 -27.023438 "/></g></g></g><g fill="#5ce1e6" fill-opacity="1"><g transform="translate(143.090213, 279.460865)"><g><path d="M 28.371094 -27.023438 L 6.753906 -27.023438 C 3.78125 -27.023438 1.351562 -24.589844 1.351562 -21.617188 L 1.351562 -5.40625 C 1.351562 -2.433594 3.78125 0 6.753906 0 L 28.371094 0 L 28.371094 -5.40625 L 6.753906 -5.40625 L 6.753906 -10.808594 L 28.371094 -10.808594 L 28.371094 -16.214844 L 6.753906 -16.214844 L 6.753906 -21.617188 L 28.371094 -21.617188 Z M 28.371094 -27.023438 "/></g></g></g><g fill="#5ce1e6" fill-opacity="1"><g transform="translate(175.336, 279.460865)"><g><path d="M 28.371094 -27.023438 L 6.753906 -27.023438 C 3.78125 -27.023438 1.351562 -24.589844 1.351562 -21.617188 L 1.351562 -16.214844 C 1.351562 -13.242188 3.78125 -10.808594 6.753906 -10.808594 L 22.96875 -10.808594 L 22.96875 -5.40625 L 1.351562 -5.40625 L 1.351562 0 L 22.96875 0 C 25.941406 0 28.371094 -2.433594 28.371094 -5.40625 L 28.371094 -10.808594 C 28.371094 -13.78125 25.941406 -16.214844 22.96875 -16.214844 L 6.753906 -16.214844 L 6.753906 -21.617188 L 28.371094 -21.617188 Z M 28.371094 -27.023438 "/></g></g></g><g fill="#5ce1e6" fill-opacity="1"><g transform="translate(207.581786, 279.460865)"><g/></g></g><g fill="#5ce1e6" fill-opacity="1"><g transform="translate(224.971411, 279.460865)"><g><path d="M 28.371094 -27.023438 L 6.753906 -27.023438 C 3.78125 -27.023438 1.351562 -24.589844 1.351562 -21.617188 L 1.351562 0 L 6.753906 0 L 6.753906 -10.808594 L 28.371094 -10.808594 L 28.371094 -16.214844 L 6.753906 -16.214844 L 6.753906 -21.617188 L 28.371094 -21.617188 Z M 28.371094 -27.023438 "/></g></g></g><g fill="#5ce1e6" fill-opacity="1"><g transform="translate(257.217198, 279.460865)"><g><path d="M 22.96875 0 C 25.976562 0 28.371094 -2.464844 28.371094 -5.40625 L 28.371094 -21.617188 C 28.371094 -24.589844 25.941406 -27.023438 22.96875 -27.023438 L 6.753906 -27.023438 C 3.78125 -27.023438 1.351562 -24.589844 1.351562 -21.617188 L 1.351562 -5.40625 C 1.351562 -2.433594 3.78125 0 6.753906 0 Z M 6.753906 -21.617188 L 22.96875 -21.617188 L 22.96875 -5.40625 L 6.753906 -5.40625 Z M 6.753906 -21.617188 "/></g></g></g><g fill="#5ce1e6" fill-opacity="1"><g transform="translate(289.462984, 279.460865)"><g><path d="M 28.371094 -21.617188 C 28.371094 -24.589844 25.941406 -27.023438 22.96875 -27.023438 L 1.351562 -27.023438 L 1.351562 0 L 6.753906 0 L 6.753906 -10.808594 L 9.929688 -10.808594 L 19.929688 -0.8125 C 20.46875 -0.269531 21.144531 0 21.886719 0 L 28.371094 0 L 28.371094 -5.40625 L 22.96875 -5.40625 L 17.5625 -10.808594 L 22.96875 -10.808594 C 25.941406 -10.808594 28.371094 -13.242188 28.371094 -16.214844 Z M 22.96875 -21.617188 L 22.96875 -16.214844 L 6.753906 -16.214844 L 6.753906 -21.617188 Z M 22.96875 -21.617188 "/></g></g></g><g fill="#5ce1e6" fill-opacity="1"><g transform="translate(119.538925, 319.433981)"><g><path d="M 28.371094 -27.023438 L 6.753906 -27.023438 C 3.78125 -27.023438 1.351562 -24.589844 1.351562 -21.617188 L 1.351562 -16.214844 C 1.351562 -13.242188 3.78125 -10.808594 6.753906 -10.808594 L 22.96875 -10.808594 L 22.96875 -5.40625 L 1.351562 -5.40625 L 1.351562 0 L 22.96875 0 C 25.941406 0 28.371094 -2.433594 28.371094 -5.40625 L 28.371094 -10.808594 C 28.371094 -13.78125 25.941406 -16.214844 22.96875 -16.214844 L 6.753906 -16.214844 L 6.753906 -21.617188 L 28.371094 -21.617188 Z M 28.371094 -27.023438 "/></g></g></g><g fill="#5ce1e6" fill-opacity="1"><g transform="translate(151.784712, 319.433981)"><g><path d="M 6.753906 -27.023438 C 3.78125 -27.023438 1.351562 -24.589844 1.351562 -21.617188 L 1.351562 0 L 6.753906 0 L 6.753906 -10.808594 L 22.96875 -10.808594 L 22.96875 0 L 28.371094 0 L 28.371094 -21.617188 C 28.371094 -24.589844 25.941406 -27.023438 22.96875 -27.023438 Z M 6.753906 -21.617188 L 22.96875 -21.617188 L 22.96875 -16.214844 L 6.753906 -16.214844 Z M 6.753906 -21.617188 "/></g></g></g><g fill="#5ce1e6" fill-opacity="1"><g transform="translate(184.030498, 319.433981)"><g><path d="M 28.371094 0 L 28.371094 -5.40625 L 6.753906 -5.40625 L 6.753906 -27.023438 L 1.351562 -27.023438 L 1.351562 -5.40625 C 1.351562 -2.433594 3.78125 0 6.753906 0 Z M 28.371094 0 "/></g></g></g><g fill="#5ce1e6" fill-opacity="1"><g transform="translate(216.276285, 319.433981)"><g><path d="M 28.371094 -27.023438 L 6.753906 -27.023438 C 3.78125 -27.023438 1.351562 -24.589844 1.351562 -21.617188 L 1.351562 -5.40625 C 1.351562 -2.433594 3.78125 0 6.753906 0 L 28.371094 0 L 28.371094 -5.40625 L 6.753906 -5.40625 L 6.753906 -10.808594 L 28.371094 -10.808594 L 28.371094 -16.214844 L 6.753906 -16.214844 L 6.753906 -21.617188 L 28.371094 -21.617188 Z M 28.371094 -27.023438 "/></g></g></g><path fill="#5ce1e6" d="M 230.253906 94.273438 C 229.953125 93.722656 229.5625 93.179688 228.746094 92.761719 L 217.089844 85.988281 C 216.929688 85.894531 216.757812 85.824219 216.574219 85.777344 C 216.515625 85.761719 216.460938 85.761719 216.394531 85.753906 C 216.273438 85.734375 216.15625 85.710938 216.035156 85.710938 L 216.011719 85.710938 L 216.011719 85.714844 C 215.664062 85.722656 215.328125 85.816406 215.027344 85.988281 L 188.800781 101.230469 L 188.777344 101.183594 L 186.664062 102.417969 C 184.109375 103.898438 180.96875 103.898438 178.417969 102.417969 L 166.953125 95.753906 C 166.316406 95.382812 165.925781 94.699219 165.925781 93.957031 C 165.925781 93.214844 166.316406 92.53125 166.953125 92.160156 L 178.417969 85.503906 C 180.96875 84.019531 184.109375 84.019531 186.664062 85.503906 L 189.421875 87.105469 C 190.0625 87.476562 190.84375 87.476562 191.480469 87.105469 L 202.160156 80.902344 C 202.796875 80.535156 203.1875 79.847656 203.1875 79.109375 C 203.1875 78.367188 202.796875 77.679688 202.160156 77.3125 L 186.664062 68.304688 C 184.109375 66.824219 180.96875 66.824219 178.417969 68.304688 L 140.457031 90.367188 C 137.707031 91.960938 137.707031 95.953125 140.457031 97.550781 L 178.417969 119.609375 C 180.96875 121.09375 184.109375 121.09375 186.664062 119.609375 L 216.011719 102.554688 L 216.011719 141.40625 L 206.582031 146.902344 L 186.664062 158.511719 C 186.03125 158.878906 185.359375 159.15625 184.65625 159.347656 C 182.550781 159.90625 180.308594 159.605469 178.417969 158.511719 L 151.128906 142.65625 C 149.851562 141.914062 149.066406 140.542969 149.066406 139.0625 L 149.066406 116.417969 C 149.066406 115.675781 148.671875 114.988281 148.039062 114.621094 L 137.363281 108.414062 C 136.726562 108.042969 135.9375 108.042969 135.300781 108.414062 C 134.664062 108.78125 134.269531 109.472656 134.269531 110.210938 L 134.269531 147.660156 C 134.269531 149.144531 135.058594 150.507812 136.332031 151.253906 L 178.417969 175.710938 C 179.652344 176.429688 181.058594 176.804688 182.484375 176.816406 L 182.511719 176.816406 C 182.710938 176.816406 182.914062 176.792969 183.113281 176.78125 C 183.269531 176.769531 183.425781 176.769531 183.582031 176.753906 C 183.792969 176.726562 184.007812 176.671875 184.214844 176.632812 C 184.355469 176.597656 184.5 176.582031 184.640625 176.546875 C 184.867188 176.488281 185.085938 176.402344 185.304688 176.320312 C 185.433594 176.273438 185.554688 176.246094 185.667969 176.199219 C 186.007812 176.058594 186.339844 175.898438 186.65625 175.710938 L 222.96875 154.613281 L 228.722656 151.324219 C 230.011719 150.589844 230.8125 149.210938 230.8125 147.71875 L 230.8125 96.351562 C 230.8125 95.609375 230.609375 94.898438 230.253906 94.273438 " fill-opacity="1" fill-rule="nonzero"/><g clip-path="url(#5a3e562a60)"><path fill="#000000" d="M 186.558594 55.898438 C 185.335938 55.1875 183.953125 54.808594 182.539062 54.796875 C 181.132812 54.808594 179.746094 55.1875 178.519531 55.898438 L 127.808594 85.367188 C 125.265625 86.847656 123.699219 89.578125 123.699219 92.535156 L 123.699219 151.476562 C 123.695312 154.433594 125.265625 157.164062 127.808594 158.640625 L 178.519531 188.109375 C 179.761719 188.832031 181.164062 189.214844 182.597656 189.222656 C 184.03125 189.214844 185.4375 188.832031 186.679688 188.117188 L 237.171875 158.773438 C 239.710938 157.300781 241.28125 154.566406 241.28125 151.609375 L 241.28125 134.578125 C 241.277344 133.835938 241.671875 133.15625 242.304688 132.785156 L 253.058594 126.539062 C 253.691406 126.167969 254.476562 126.167969 255.109375 126.539062 C 255.75 126.910156 256.140625 127.59375 256.140625 128.332031 L 256.140625 160.054688 C 256.132812 161.40625 255.800781 162.738281 255.167969 163.929688 C 255.007812 164.710938 254.160156 165.632812 252.964844 166.574219 C 252.941406 166.597656 252.90625 166.621094 252.878906 166.644531 C 249.84375 169.023438 244.816406 171.476562 243.925781 172 L 186.679688 205.265625 C 185.398438 206.003906 183.9375 206.386719 182.460938 206.367188 L 182.394531 206.367188 L 182.394531 206.363281 C 181.035156 206.328125 179.699219 205.945312 178.519531 205.265625 L 113.050781 167.21875 C 110.507812 165.742188 108.941406 163.011719 108.941406 160.054688 L 108.941406 83.964844 C 108.941406 82.632812 109.109375 81.28125 109.6875 80.136719 C 109.765625 79.839844 110.5625 78.378906 112.195312 77.175781 C 112.8125 76.757812 113.902344 76.195312 114.921875 75.601562 L 178.335938 38.75 C 179.613281 38.011719 181.070312 37.628906 182.539062 37.648438 C 184.019531 37.628906 185.46875 38.011719 186.742188 38.75 L 245.261719 72.75 C 245.394531 72.832031 245.496094 72.929688 245.613281 73.023438 L 246.355469 73.453125 C 248.34375 74.515625 251.460938 76.132812 253.148438 77.421875 L 253.289062 77.527344 C 253.3125 77.546875 253.332031 77.5625 253.355469 77.578125 C 253.414062 77.628906 253.453125 77.675781 253.511719 77.730469 C 254.132812 78.253906 254.664062 78.867188 255.070312 79.554688 C 255.082031 79.5625 255.085938 79.574219 255.097656 79.585938 L 255.09375 79.585938 C 255.777344 80.734375 256.140625 82.050781 256.140625 83.386719 L 256.140625 111.25 C 256.140625 111.992188 255.75 112.671875 255.109375 113.042969 L 244.359375 119.292969 C 243.726562 119.660156 242.9375 119.660156 242.304688 119.292969 C 241.667969 118.921875 241.277344 118.242188 241.277344 117.5 L 241.277344 92.375 C 241.277344 89.414062 239.707031 86.679688 237.160156 85.203125 Z M 186.558594 55.898438 " fill-opacity="1" fill-rule="nonzero"/></g></svg>